<svg width="126" height="24" viewBox="0 0 126 24" fill="none" xmlns="http://www.w3.org/2000/svg">
<path d="M15.8181 11.394C15.8181 10.7967 15.6548 10.33 15.3281 9.994C15.0014 9.64867 14.5348 9.476 13.9281 9.476C13.3961 9.476 12.9341 9.59267 12.5421 9.826C12.1594 10.0593 11.8794 10.4373 11.7021 10.96L11.1281 10.596C11.3334 10.0453 11.6741 9.62067 12.1501 9.322C12.6354 9.014 13.2328 8.86 13.9421 8.86C14.7074 8.86 15.3281 9.06533 15.8041 9.476C16.2801 9.87733 16.5181 10.4747 16.5181 11.268V14.768C16.5181 15.2627 16.7421 15.51 17.1901 15.51C17.3861 15.51 17.5541 15.4773 17.6941 15.412L17.6521 15.972C17.4934 16.056 17.2881 16.098 17.0361 16.098C16.7281 16.098 16.4528 16.0093 16.2101 15.832C15.9674 15.6547 15.8321 15.3327 15.8041 14.866C15.5708 15.3047 15.2208 15.6267 14.7541 15.832C14.2874 16.0373 13.8161 16.14 13.3401 16.14C12.6774 16.14 12.1314 15.986 11.7021 15.678C11.2728 15.37 11.0581 14.922 11.0581 14.334C11.0581 13.802 11.2354 13.3773 11.5901 13.06C11.9448 12.7427 12.4348 12.5233 13.0601 12.402L15.8181 11.856V11.394ZM11.7721 14.278C11.7721 14.67 11.9168 14.978 12.2061 15.202C12.4954 15.4167 12.9061 15.524 13.4381 15.524C13.8021 15.524 14.1661 15.4587 14.5301 15.328C14.9034 15.188 15.2114 14.9733 15.4541 14.684C15.6968 14.3853 15.8181 14.0027 15.8181 13.536V12.444L13.4101 12.92C12.8594 13.032 12.4488 13.1953 12.1781 13.41C11.9074 13.6247 11.7721 13.914 11.7721 14.278ZM19.7796 5.78V14.348C19.7796 14.7773 19.8543 15.0807 20.0036 15.258C20.153 15.4353 20.3863 15.524 20.7036 15.524C20.8996 15.524 21.0536 15.51 21.1656 15.482C21.287 15.454 21.427 15.4073 21.5856 15.342L21.4876 15.958C21.2263 16.0793 20.9183 16.14 20.5636 16.14C20.069 16.14 19.6956 16 19.4436 15.72C19.201 15.4307 19.0796 14.9827 19.0796 14.376V5.78H19.7796ZM22.9774 18.94V9H23.6074L23.6494 10.596C23.8548 10.064 24.1908 9.644 24.6574 9.336C25.1241 9.01867 25.6701 8.86 26.2954 8.86C26.8928 8.86 27.4294 9.00467 27.9054 9.294C28.3814 9.58333 28.7594 9.99867 29.0394 10.54C29.3194 11.0813 29.4594 11.7347 29.4594 12.5C29.4594 13.256 29.3194 13.9093 29.0394 14.46C28.7594 15.0013 28.3768 15.4167 27.8914 15.706C27.4154 15.9953 26.8741 16.14 26.2674 16.14C25.6701 16.14 25.1428 15.9907 24.6854 15.692C24.2281 15.3933 23.8921 14.9873 23.6774 14.474V18.94H22.9774ZM26.1834 15.524C26.9768 15.524 27.6021 15.2533 28.0594 14.712C28.5261 14.1707 28.7594 13.4333 28.7594 12.5C28.7594 11.5667 28.5308 10.8293 28.0734 10.288C27.6161 9.74667 26.9954 9.476 26.2114 9.476C25.7168 9.476 25.2781 9.602 24.8954 9.854C24.5221 10.0967 24.2234 10.4467 23.9994 10.904C23.7848 11.352 23.6774 11.884 23.6774 12.5C23.6774 13.116 23.7848 13.6527 23.9994 14.11C24.2141 14.558 24.5081 14.908 24.8814 15.16C25.2641 15.4027 25.6981 15.524 26.1834 15.524ZM31.4814 16V5.78H32.1814V10.428C32.3867 9.93333 32.718 9.55067 33.1754 9.28C33.6327 9 34.16 8.86 34.7574 8.86C35.532 8.86 36.1714 9.07933 36.6754 9.518C37.1794 9.94733 37.4314 10.5913 37.4314 11.45V16H36.7314V11.674C36.7314 10.9087 36.54 10.3487 36.1574 9.994C35.7747 9.63933 35.2847 9.462 34.6874 9.462C34.2487 9.462 33.838 9.56467 33.4554 9.77C33.0727 9.97533 32.7647 10.2693 32.5314 10.652C32.298 11.0347 32.1814 11.5013 32.1814 12.052V16H31.4814ZM44.1325 11.394C44.1325 10.7967 43.9692 10.33 43.6425 9.994C43.3159 9.64867 42.8492 9.476 42.2425 9.476C41.7105 9.476 41.2485 9.59267 40.8565 9.826C40.4739 10.0593 40.1939 10.4373 40.0165 10.96L39.4425 10.596C39.6479 10.0453 39.9885 9.62067 40.4645 9.322C40.9499 9.014 41.5472 8.86 42.2565 8.86C43.0219 8.86 43.6425 9.06533 44.1185 9.476C44.5945 9.87733 44.8325 10.4747 44.8325 11.268V14.768C44.8325 15.2627 45.0565 15.51 45.5045 15.51C45.7005 15.51 45.8685 15.4773 46.0085 15.412L45.9665 15.972C45.8079 16.056 45.6025 16.098 45.3505 16.098C45.0425 16.098 44.7672 16.0093 44.5245 15.832C44.2819 15.6547 44.1465 15.3327 44.1185 14.866C43.8852 15.3047 43.5352 15.6267 43.0685 15.832C42.6019 16.0373 42.1305 16.14 41.6545 16.14C40.9919 16.14 40.4459 15.986 40.0165 15.678C39.5872 15.37 39.3725 14.922 39.3725 14.334C39.3725 13.802 39.5499 13.3773 39.9045 13.06C40.2592 12.7427 40.7492 12.5233 41.3745 12.402L44.1325 11.856V11.394ZM40.0865 14.278C40.0865 14.67 40.2312 14.978 40.5205 15.202C40.8099 15.4167 41.2205 15.524 41.7525 15.524C42.1165 15.524 42.4805 15.4587 42.8445 15.328C43.2179 15.188 43.5259 14.9733 43.7685 14.684C44.0112 14.3853 44.1325 14.0027 44.1325 13.536V12.444L41.7245 12.92C41.1739 13.032 40.7632 13.1953 40.4925 13.41C40.2219 13.6247 40.0865 13.914 40.0865 14.278ZM55.9298 9H56.6718L53.7458 16H53.0458L50.1198 9H50.9038L53.4098 15.272L55.9298 9ZM60.9155 16.14C60.2715 16.14 59.6975 15.9953 59.1935 15.706C58.6895 15.4167 58.2928 15.0013 58.0035 14.46C57.7235 13.9093 57.5835 13.256 57.5835 12.5C57.5835 11.744 57.7235 11.0953 58.0035 10.554C58.2835 10.0033 58.6661 9.58333 59.1515 9.294C59.6461 9.00467 60.2061 8.86 60.8315 8.86C61.4661 8.86 62.0075 9 62.4555 9.28C62.9128 9.56 63.2581 9.952 63.4915 10.456C63.7341 10.9507 63.8555 11.5247 63.8555 12.178C63.8555 12.2713 63.8508 12.36 63.8415 12.444C63.8415 12.5187 63.8368 12.584 63.8275 12.64H58.2695C58.2975 13.5453 58.5495 14.2547 59.0255 14.768C59.5108 15.272 60.1361 15.524 60.9015 15.524C61.4428 15.524 61.9048 15.4073 62.2875 15.174C62.6795 14.9407 62.9828 14.6187 63.1975 14.208L63.7575 14.53C63.4961 15.0247 63.1181 15.4167 62.6235 15.706C62.1381 15.9953 61.5688 16.14 60.9155 16.14ZM60.8175 9.476C60.1361 9.476 59.5621 9.7 59.0955 10.148C58.6381 10.5867 58.3675 11.2073 58.2835 12.01H63.1695C63.1415 11.2353 62.9175 10.6193 62.4975 10.162C62.0868 9.70467 61.5268 9.476 60.8175 9.476ZM65.8524 16V9H66.4404L66.5244 10.456C66.7018 9.98 66.9818 9.59733 67.3644 9.308C67.7564 9.00933 68.2324 8.86 68.7924 8.86C69.1658 8.86 69.4598 8.93933 69.6744 9.098L69.5064 9.714C69.4038 9.64867 69.2918 9.59733 69.1704 9.56C69.0491 9.52267 68.8671 9.504 68.6244 9.504C68.2698 9.504 67.9338 9.616 67.6164 9.84C67.2991 10.0547 67.0424 10.358 66.8464 10.75C66.6504 11.1327 66.5524 11.576 66.5524 12.08V16H65.8524ZM73.277 16.14C72.5677 16.14 71.9377 15.9953 71.387 15.706C70.8457 15.4167 70.463 15.0013 70.239 14.46L70.841 14.054C70.9997 14.53 71.2984 14.894 71.737 15.146C72.1757 15.398 72.7077 15.524 73.333 15.524C73.9397 15.524 74.4204 15.4027 74.775 15.16C75.1297 14.9173 75.307 14.5953 75.307 14.194C75.307 13.9233 75.2184 13.69 75.041 13.494C74.873 13.2887 74.551 13.1347 74.075 13.032L72.437 12.682C71.7744 12.542 71.2984 12.318 71.009 12.01C70.7197 11.6927 70.575 11.31 70.575 10.862C70.575 10.498 70.687 10.1667 70.911 9.868C71.135 9.56 71.443 9.31733 71.835 9.14C72.2364 8.95333 72.703 8.86 73.235 8.86C73.935 8.86 74.5137 9 74.971 9.28C75.4284 9.55067 75.7504 9.96133 75.937 10.512L75.349 10.89C75.209 10.3953 74.9477 10.036 74.565 9.812C74.1824 9.588 73.739 9.476 73.235 9.476C72.6377 9.476 72.1617 9.60667 71.807 9.868C71.4524 10.12 71.275 10.4373 71.275 10.82C71.275 11.0907 71.3637 11.338 71.541 11.562C71.7277 11.7767 72.0637 11.9353 72.549 12.038L74.229 12.402C74.8824 12.542 75.3397 12.7567 75.601 13.046C75.8717 13.326 76.007 13.676 76.007 14.096C76.007 14.7213 75.755 15.2207 75.251 15.594C74.7564 15.958 74.0984 16.14 73.277 16.14ZM78.3294 7.642C78.1521 7.642 78.0074 7.59067 77.8954 7.488C77.7927 7.376 77.7414 7.23133 77.7414 7.054C77.7414 6.87667 77.7927 6.73667 77.8954 6.634C78.0074 6.522 78.1521 6.466 78.3294 6.466C78.5067 6.466 78.6467 6.522 78.7494 6.634C78.8614 6.73667 78.9174 6.87667 78.9174 7.054C78.9174 7.23133 78.8614 7.376 78.7494 7.488C78.6467 7.59067 78.5067 7.642 78.3294 7.642ZM78.6794 9V16H77.9794V9H78.6794ZM84.0346 8.86C84.688 8.86 85.262 9.00467 85.7566 9.294C86.2606 9.58333 86.6526 10.0033 86.9326 10.554C87.222 11.0953 87.3666 11.744 87.3666 12.5C87.3666 13.256 87.222 13.9093 86.9326 14.46C86.6526 15.0013 86.2606 15.4167 85.7566 15.706C85.262 15.9953 84.688 16.14 84.0346 16.14C83.3813 16.14 82.8026 15.9953 82.2986 15.706C81.804 15.4167 81.412 15.0013 81.1226 14.46C80.8426 13.9093 80.7026 13.256 80.7026 12.5C80.7026 11.744 80.8426 11.0953 81.1226 10.554C81.412 10.0033 81.804 9.58333 82.2986 9.294C82.8026 9.00467 83.3813 8.86 84.0346 8.86ZM84.0346 9.462C83.2413 9.462 82.602 9.73267 82.1166 10.274C81.6406 10.8153 81.4026 11.5573 81.4026 12.5C81.4026 13.4427 81.6406 14.1847 82.1166 14.726C82.602 15.2673 83.2413 15.538 84.0346 15.538C84.828 15.538 85.4626 15.2673 85.9386 14.726C86.424 14.1847 86.6666 13.4427 86.6666 12.5C86.6666 11.5573 86.424 10.8153 85.9386 10.274C85.4626 9.73267 84.828 9.462 84.0346 9.462ZM89.3681 16V9H89.9981L90.0401 10.4C90.2547 9.90533 90.5954 9.52733 91.0621 9.266C91.5287 8.99533 92.0561 8.86 92.6441 8.86C93.4187 8.86 94.0581 9.07933 94.5621 9.518C95.0661 9.95667 95.3181 10.6053 95.3181 11.464V16H94.6181V11.688C94.6181 10.9227 94.4267 10.3627 94.0441 10.008C93.6614 9.65333 93.1714 9.476 92.5741 9.476C92.1354 9.476 91.7247 9.57867 91.3421 9.784C90.9594 9.98 90.6514 10.2693 90.4181 10.652C90.1847 11.0347 90.0681 11.5013 90.0681 12.052V16H89.3681ZM105.134 16.14C104.079 16.14 103.253 15.734 102.656 14.922C102.059 14.1007 101.76 12.92 101.76 11.38C101.76 9.84 102.059 8.664 102.656 7.852C103.253 7.03067 104.079 6.62 105.134 6.62C106.179 6.62 107.001 7.03067 107.598 7.852C108.195 8.664 108.494 9.84 108.494 11.38C108.494 12.92 108.195 14.1007 107.598 14.922C107.001 15.734 106.179 16.14 105.134 16.14ZM105.134 15.51C105.983 15.51 106.637 15.16 107.094 14.46C107.551 13.7507 107.78 12.724 107.78 11.38C107.78 10.036 107.551 9.014 107.094 8.314C106.637 7.60467 105.983 7.25 105.134 7.25C104.275 7.25 103.617 7.60467 103.16 8.314C102.703 9.014 102.474 10.036 102.474 11.38C102.474 12.724 102.703 13.7507 103.16 14.46C103.617 15.16 104.275 15.51 105.134 15.51ZM110.607 14.852C110.794 14.852 110.943 14.9127 111.055 15.034C111.177 15.146 111.237 15.2953 111.237 15.482C111.237 15.6687 111.177 15.8227 111.055 15.944C110.943 16.056 110.794 16.112 110.607 16.112C110.421 16.112 110.267 16.056 110.145 15.944C110.033 15.8227 109.977 15.6687 109.977 15.482C109.977 15.2953 110.033 15.146 110.145 15.034C110.267 14.9127 110.421 14.852 110.607 14.852ZM113.647 16V8.678C113.647 8.51933 113.647 8.36067 113.647 8.202C113.657 8.034 113.661 7.866 113.661 7.698C113.363 8.07133 112.994 8.39333 112.555 8.664C112.126 8.92533 111.687 9.11667 111.239 9.238L111.057 8.608C111.328 8.53333 111.636 8.40733 111.981 8.23C112.336 8.04333 112.672 7.824 112.989 7.572C113.316 7.31067 113.559 7.04 113.717 6.76H114.347V16H113.647Z" fill="white"/>
<rect x="0.5" y="0.5" width="125" height="23" rx="11.5" stroke="white"/>
</svg>
